<?xml version="1.0" encoding="utf-8"?>
<!-- Generator: Adobe Illustrator 26.2.1, SVG Export Plug-In . SVG Version: 6.00 Build 0)  -->
<svg version="1.1" xmlns="http://www.w3.org/2000/svg" xmlns:xlink="http://www.w3.org/1999/xlink" x="0px" y="0px"
	 viewBox="0 0 120 60" style="enable-background:new 0 0 120 60;" xml:space="preserve">
<style type="text/css">
	.st0{display:none;}
	.st1{fill:#FFFFFF;}
	.st2{fill:#12100B;}
	.st3{fill:#D87FB3;}
	.st4{fill:#F1B3D2;}
</style>
<g id="Layer_2" class="st0">
</g>
<g id="Layer_1">
	<g>
		<path class="st1" d="M54.2,34.2c-0.1-0.1-0.3,0-0.6,0.3c-0.2,0.3-0.4,0.6-0.5,1c-1.6,5.4-3.7,9.1-6.2,11c-0.3-1.1-0.6-2.4-0.7-4
			c-0.2-1.6-0.2-3-0.1-4.2c0-0.7-0.2-1.2-0.6-1.3c-0.5-0.2-0.9,0.1-1.2,0.7c-0.7,1.4-1.5,2.9-2.5,4.6c-1,1.7-1.9,2.9-2.8,3.7
			c-0.2-1.3-0.3-2.8-0.4-4.6c0-1.8,0-3.4,0.1-5c0.1-1.5,0.2-3.1,0.3-4.8c0-0.5-0.2-1-0.6-1.3c-0.4-0.4-0.9-0.5-1.4-0.3
			c-0.2,0.1-0.4,0.2-0.5,0.3c-0.1,0.1-0.2,0.2-0.4,0.2c-1.2,0.8-2.5,1.5-3.7,1.9c-1.3,0.4-2.3,0.6-3.2,0.6c-0.8,0-1.6-0.1-2.2-0.2
			c-0.7-0.2-1.2-0.7-1.6-1.4c-0.3-0.7-0.4-1.5-0.1-2.5c0.2-0.7,0.5-1.4,0.9-2.1c0.4-0.6,0.7-1.2,1.1-1.6c0.4-0.4,0.7-0.8,1.1-1.2
			c0.4-0.4,0.8-0.7,1.1-0.9c0.3-0.2,0.6-0.5,0.9-0.7c0.5-0.5,1.4-0.9,2.6-1.5c1.2-0.5,2-0.9,2.6-1.1c0.5-0.2,0.7-0.6,0.7-1.1
			c0-0.5-0.2-1-0.6-1.3c-0.4-0.4-0.8-0.5-1.3-0.3c-1,0.4-2.1,0.9-3.4,1.7c-1.3,0.8-2.2,1.5-2.8,2.1c-2.4,2.4-4,4.9-4.9,7.4
			c-0.5,1.6-0.4,3.1,0.4,4.4c0.8,1.3,1.9,2,3.2,2.2c1.7,0.2,3.3,0,4.9-0.6c1.4-0.6,2.8-1.6,4.3-3c-0.5,6.6-0.1,12.2,1.2,16.7
			c0.1,0.5,0.4,0.8,0.9,1c0.5,0.1,0.9,0,1.3-0.3c1.4-1.3,3-3.6,4.7-6.8c0.3,2.9,0.8,5.1,1.6,6.6c0.5,0.9,1.2,1,2,0.1
			c2.8-2.8,5-7.3,6.6-13.5C54.3,34.5,54.3,34.3,54.2,34.2z"/>
		<path class="st1" d="M41.5,18.2c0.1-0.6,0.5-0.9,1.1-1.1c0.6-0.2,1.1-0.1,1.5,0.2c0.4,0.3,0.5,0.7,0.3,1.3c-0.6,1.5-1.2,3.1-1.8,5
			c2-1.7,4.6-2.7,7.8-3.1c0.4,0,0.7,0,1,0.1c0.3,0.1,0.3,0.2,0.2,0.3c-0.1,0.1-0.5,0.2-1.1,0.3c-2.7,0.5-5.2,1.9-7.4,4.4
			c-1.3,1.4-2.2,2.8-2.8,4.2c-0.1,0.4-0.3,0.5-0.5,0.4c-0.2-0.1-0.3-0.3-0.3-0.7C39.8,25.9,40.5,22.1,41.5,18.2z"/>
		<path class="st1" d="M59.5,17.7c0.6-0.2,1.1-0.1,1.6,0.1c0.5,0.2,0.7,0.5,0.8,0.8c0.1,0.3-0.1,0.6-0.4,0.9
			c0.8,1.3,1.1,2.7,0.8,4.1c-0.1,0.5-0.2,0.8-0.3,1.1c-0.1,0.3-0.2,0.6-0.5,1.1c-0.2,0.5-0.5,1-1,1.4c-0.4,0.4-0.9,0.8-1.5,1.2
			c-1.3,0.8-2.8,1.1-4.5,1c-1,0-1.9-0.5-2.5-1.3c-0.7-0.8-0.9-1.8-0.6-2.9c0.4-1.7,1.4-3.3,3-4.8c0.5-0.5,1.3-1,2.3-1.6
			C57.8,18.3,58.7,17.9,59.5,17.7z M53.9,25.1c-0.5,1.5-0.2,2.3,0.6,2.5c1.5,0.3,2.8,0.1,4-0.6c1.3-1,2.2-2.1,2.4-3.5
			c0.3-1.6,0.3-2.9-0.1-3.8c-1.8,0.5-3.1,1-3.9,1.6c-0.6,0.4-1,0.7-1.3,1c-0.3,0.3-0.7,0.7-1,1.1C54.3,24,54.1,24.5,53.9,25.1z"/>
		<path class="st1" d="M65.1,18c0.1-0.6,0.4-0.9,0.9-1c0.5,0,1,0.2,1.4,0.6c0.4,0.4,0.6,0.8,0.5,1.2c-0.6,4.3-0.7,7.2-0.4,8.6
			c1.3-0.9,2.9-2.8,4.7-5.6c0.2-0.3,0.4-0.5,0.8-0.7c0.4-0.2,0.7-0.3,1-0.2c0.3,0,0.4,0.3,0.4,0.6c-0.2,0.7-0.2,1.9-0.1,3.4
			c0.1,1.5,0.3,2.6,0.6,3.3c0.9-0.7,1.8-1.7,2.8-3.1s1.7-2.8,2.3-4.2c0.2-0.4,0.5-0.7,0.9-0.9c0.2-0.1,0.3-0.1,0.3,0.1
			c0,0.1,0,0.2-0.1,0.3c-0.9,2.2-1.8,4.1-2.6,5.6c-0.8,1.5-1.8,2.6-2.9,3.4c-0.3,0.3-0.7,0.4-1.1,0.4c-0.4,0-0.7-0.2-1-0.6
			c-0.6-0.7-1.1-2.3-1.4-4.8c-1,1.6-2.4,3.2-4.2,4.7c-0.3,0.3-0.7,0.4-1.3,0.3c-0.5-0.1-0.9-0.3-1-0.8c-0.4-1.4-0.7-3.1-0.8-5.1
			C64.9,21.4,64.9,19.6,65.1,18z"/>
		<path class="st1" d="M96.5,11.9l-4.7,15.6c1.1,0.2,2,0.2,2.8,0.2c0.2,0,0.4,0,0.4,0.1c0.1,0.1,0,0.1-0.1,0.3
			c-0.2,0.1-0.4,0.2-0.8,0.2c-0.8,0.2-1.6,0.3-2.6,0.3c-0.1,0.3-0.2,0.5-0.2,0.6c-0.2,0.9-0.5,1.4-0.7,1.4c-0.2,0-0.3-0.5-0.2-1.4
			c0-0.3,0-0.5,0-0.7c-1-0.1-2.1-0.3-3.2-0.6c-1.2-0.3-2.2-0.8-3.1-1.6s-1.5-1.7-1.7-2.8c-0.2-1.1-0.1-2.1,0.5-2.9
			c0.6-0.8,1.3-1.3,2.3-1.6c1.6-0.5,3.8-0.6,6.7-0.3c0.5-3.3,1-5.8,1.4-7.5c0.2-0.9,0.6-1.4,1.2-1.5c0.6-0.1,1.1,0.1,1.5,0.6
			C96.5,10.8,96.7,11.3,96.5,11.9z M87.5,26.2c1.3,0.5,2.4,0.8,3.1,1c0.1-0.9,0.5-3.1,1-6.6c-2.5-0.4-4.4-0.3-5.8,0.2
			c-0.5,0.2-0.9,0.5-1.2,1c-0.3,0.5-0.3,1.1,0,1.7C85.2,24.8,86.1,25.6,87.5,26.2z"/>
		<path class="st1" d="M54.9,46.6c0,0-0.5,0-1.3-0.1c-0.5,0-0.8-0.2-1-0.6c-0.2-0.4-0.2-0.8,0-1.2c0.2-0.4,0.6-0.5,1.1-0.4
			c0.2,0.1,0.6,0.2,1.1,0.3c0-0.4,0.1-0.8,0.3-1.1c0.5-1.7,1.5-3,2.9-3.9c0.5-0.3,1-0.5,1.6-0.8c0.6-0.2,1.3-0.4,2-0.5
			c0.8-0.1,1.4,0,2,0.2c0.8,0.3,1.4,0.8,1.7,1.7c0.3,0.8,0.4,1.6,0.2,2.4c-0.2,0.6-0.5,1.2-1.1,1.7c-0.6,0.6-1.2,1-1.9,1.4
			c-1.3,0.6-3.1,1-5.5,1c0.2,1.1,0.8,1.8,1.7,2c1.9,0.6,3.6,0.4,5.1-0.5c0.7-0.4,1.2-0.6,1.4-0.5c0.2,0,0.1,0.2-0.1,0.4
			c-0.8,1-2,1.6-3.5,1.8c-1.5,0.3-2.7,0.2-3.6-0.2C56.4,49.2,55.3,48.2,54.9,46.6z M61.7,44c0.2-0.1,0.4-0.2,0.6-0.2
			c0.2-0.1,0.4-0.2,0.5-0.3c0.2-0.1,0.3-0.2,0.4-0.3c0.1-0.1,0.3-0.3,0.4-0.4c0.1-0.2,0.2-0.4,0.2-0.6c0.1-0.4,0.1-0.8-0.1-1.3
			c-0.2-0.5-0.4-0.8-0.8-0.9c-1.1-0.4-2.4-0.1-4,1c-1,0.7-1.6,1.7-1.9,3.1c0,0.2-0.1,0.4-0.1,0.8c1.6,0.1,3-0.1,4.1-0.5
			C61.3,44.2,61.5,44.1,61.7,44z"/>
		<path class="st1" d="M75.2,32.6c-1.9,6.3-3.6,12-5.1,17.2c-0.2,0.9-0.5,1.4-0.7,1.4c-0.2,0-0.3-0.5-0.2-1.4
			c0.1-1.2,0.5-4.1,1.3-8.7c0.7-4.6,1.3-7.6,1.6-9.2c0.2-0.9,0.6-1.4,1.2-1.5c0.6-0.1,1.1,0.1,1.5,0.6
			C75.2,31.5,75.3,32.1,75.2,32.6z"/>
		<path class="st1" d="M83.9,32.6c-1.9,6.3-3.6,12-5.1,17.2c-0.2,0.9-0.5,1.4-0.7,1.4c-0.2,0-0.3-0.5-0.2-1.4
			c0.1-1.2,0.5-4.1,1.3-8.7c0.7-4.6,1.3-7.6,1.6-9.2c0.2-0.9,0.6-1.4,1.2-1.5c0.6-0.1,1.1,0.1,1.5,0.6
			C83.9,31.5,84.1,32.1,83.9,32.6z"/>
		<path class="st1" d="M35.7,17.1c0,1.1-0.9,2-2,2c-1.1,0-2-0.9-2-2c0-1.1,0.9-2,2-2C34.8,15.1,35.7,16,35.7,17.1z"/>
		<path class="st2" d="M35.2,16.5c0,0.6-0.5,1-1.1,1c-0.6,0-1.1-0.5-1.1-1c0-0.6,0.5-1.1,1.1-1.1C34.8,15.5,35.2,15.9,35.2,16.5z"/>
		<circle class="st1" cx="29.8" cy="19" r="2"/>
		<path class="st2" d="M31.3,18.5c0,0.6-0.5,1-1.1,1c-0.6,0-1.1-0.5-1.1-1c0-0.6,0.5-1,1.1-1C30.8,17.4,31.3,17.9,31.3,18.5z"/>
		<path class="st3" d="M30.3,26.5c0,0,9.4-6.5,13,3c3.2,8.4-7-2.4-11.9,0.3L30.3,26.5z"/>
		<path class="st3" d="M30.3,26.5c0,0,9.4-6.5,13,3c3.2,8.4-7-2.4-11.9,0.3L30.3,26.5z"/>
		<path class="st4" d="M33.1,28c0,0,4.7-2.2,9.2,3.1C42.3,31.1,40.1,25,33.1,28z"/>
	</g>
</g>
</svg>
